HIERARCHY
ROOT Hips
{
	OFFSET -0.001795 -0.223333 0.028219
	CHANNELS 6 Xposition Yposition Zposition Zrotation Yrotation Xrotation 
	JOINT LeftUpLeg
	{
		OFFSET 0.069520 -0.091406 -0.006815
		CHANNELS 3 Zrotation Yrotation Xrotation
		JOINT LeftLeg
		{
			OFFSET 0.034277 -0.375199 -0.004496
			CHANNELS 3 Zrotation Yrotation Xrotation
			JOINT LeftFoot
			{
				OFFSET -0.013596 -0.397961 -0.043693
				CHANNELS 3 Zrotation Yrotation Xrotation
				JOINT LeftToe
				{
					OFFSET 0.026358 -0.055791 0.119288
					CHANNELS 3 Zrotation Yrotation Xrotation
					End Site
					{
						OFFSET 0.000000 0.000000 0.000000
					}
				}
			}
		}
	}
	JOINT RightUpLeg
	{
		OFFSET -0.067670 -0.090522 -0.004320
		CHANNELS 3 Zrotation Yrotation Xrotation
		JOINT RightLeg
		{
			OFFSET -0.038290 -0.382569 -0.008850
			CHANNELS 3 Zrotation Yrotation Xrotation
			JOINT RightFoot
			{
				OFFSET 0.015774 -0.398415 -0.042312
				CHANNELS 3 Zrotation Yrotation Xrotation
				JOINT RightToe
				{
					OFFSET -0.025372 -0.048144 0.123348
					CHANNELS 3 Zrotation Yrotation Xrotation
					End Site
					{
						OFFSET 0.000000 0.000000 0.000000
					}
				}
			}
		}
	}
	JOINT Spine
	{
		OFFSET -0.002533 0.108963 -0.026696
		CHANNELS 3 Zrotation Yrotation Xrotation
		JOINT Spine1
		{
			OFFSET 0.005487 0.135180 0.001092
			CHANNELS 3 Zrotation Yrotation Xrotation
			JOINT Spine2
			{
				OFFSET 0.001457 0.052922 0.025425
				CHANNELS 3 Zrotation Yrotation Xrotation
				JOINT Neck
				{
					OFFSET -0.002778 0.213870 -0.042857
					CHANNELS 3 Zrotation Yrotation Xrotation
					JOINT Head
					{
						OFFSET 0.005152 0.064970 0.051349
						CHANNELS 3 Zrotation Yrotation Xrotation
						End Site
						{
							OFFSET 0.000000 0.000000 0.000000
						}
					}
				}
				JOINT LeftShoulder
				{
					OFFSET 0.078845 0.121749 -0.034090
					CHANNELS 3 Zrotation Yrotation Xrotation
					JOINT LeftArm
					{
						OFFSET 0.090977 0.030469 -0.008868
						CHANNELS 3 Zrotation Yrotation Xrotation
						JOINT LeftForeArm
						{
							OFFSET 0.259612 -0.012772 -0.027456
							CHANNELS 3 Zrotation Yrotation Xrotation
							JOINT LeftHand
							{
								OFFSET 0.249234 0.008986 -0.001171
								CHANNELS 3 Zrotation Yrotation Xrotation
								End Site
								{
									OFFSET 0.000000 0.000000 0.000000
								}
							}
						}
					}
				}
				JOINT RightShoulder
				{
					OFFSET -0.081759 0.118833 -0.038615
					CHANNELS 3 Zrotation Yrotation Xrotation
					JOINT RightArm
					{
						OFFSET -0.096012 0.032551 -0.009143
						CHANNELS 3 Zrotation Yrotation Xrotation
						JOINT RightForeArm
						{
							OFFSET -0.253742 -0.013329 -0.021401
							CHANNELS 3 Zrotation Yrotation Xrotation
							JOINT RightHand
							{
								OFFSET -0.255298 0.007772 -0.005559
								CHANNELS 3 Zrotation Yrotation Xrotation
								End Site
								{
									OFFSET 0.000000 0.000000 0.000000
								}
							}
						}
					}
				}
			}
		}
	}
}
MOTION
Frames: 11
Frame Time: 0.050000
0.000000 0.893251 0.000000 -2.495835 -13.378542 13.743631 14.252046 2.640668 -33.101675 -7.844381 2.758636 22.214567 8.723850 17.444825 8.102148 0.000000 0.000000 0.000000 -2.511002 3.040310 -26.877930 7.659951 -0.353219 24.478736 -9.841450 -24.035531 -3.202550 0.000000 0.000000 0.000000 -0.883150 0.374693 33.575708 -3.713914 1.769062 0.175419 -3.586429 1.791832 5.275653 8.305515 -2.240689 -28.340715 0.000000 0.000000 0.000000 -21.229508 -34.540722 19.945629 -20.367076 -42.095815 2.999345 26.395413 -12.090826 -2.016894 0.000000 0.000000 0.000000 16.903141 27.964530 13.060105 37.152104 38.875802 7.754614 -24.569451 21.773167 -3.484514 0.000000 0.000000 0.000000 
-0.007812 0.891153 -0.005069 -2.743641 -13.699514 13.860797 15.354150 3.350730 -35.151396 -8.187092 3.254454 25.477273 8.496584 16.975680 9.612743 0.000000 0.000000 0.000000 -2.268098 3.031733 -26.446759 8.689780 -0.642444 23.158934 -9.768877 -23.700575 -4.726711 0.000000 0.000000 0.000000 0.186528 0.060419 34.533625 -2.710025 1.340166 0.925660 -4.686271 3.039868 4.055075 9.037303 -1.909604 -31.206278 0.000000 0.000000 0.000000 -23.645223 -35.030147 20.585330 -18.318460 -42.679317 2.548926 26.037076 -11.150173 -1.818997 0.000000 0.000000 0.000000 16.789985 25.266009 11.939569 36.011305 41.156412 8.149556 -27.254175 22.313570 -3.975178 0.000000 0.000000 0.000000 
-0.013947 0.890683 -0.008518 -1.901546 -11.942316 13.022205 14.347290 3.043035 -37.779412 -7.111301 3.117611 30.117675 7.139025 14.953935 11.023664 0.000000 0.000000 0.000000 -2.821359 2.892362 -26.801361 9.331251 -0.953247 24.949290 -10.429726 -25.578953 -4.244573 0.000000 0.000000 0.000000 2.109871 -0.834497 35.979788 -2.858142 1.400405 1.020091 -6.106798 2.571148 2.557145 7.843289 -1.819686 -27.239631 0.000000 0.000000 0.000000 -27.642137 -35.895265 22.189243 -14.226206 -41.016927 1.305754 23.637238 -11.399005 -1.684280 0.000000 0.000000 0.000000 19.497328 27.061909 13.709575 30.607531 39.635679 6.145164 -23.975342 21.739842 -3.278765 0.000000 0.000000 0.000000 
-0.018699 0.890828 -0.009853 -1.745131 -13.125434 12.512145 16.385573 4.391199 -39.909057 -9.783325 4.902586 33.981398 6.957774 14.823345 17.002784 0.000000 0.000000 0.000000 -2.514828 3.239822 -28.445302 9.064566 -0.709307 28.486242 -10.246576 -25.180247 -2.999052 0.000000 0.000000 0.000000 2.349609 -0.752944 37.048551 -3.717795 1.869765 2.015167 -6.172289 3.075185 0.526390 8.851734 -1.947049 -28.608256 0.000000 0.000000 0.000000 -31.375566 -36.180045 23.472182 -13.128212 -40.247172 1.087178 24.652658 -12.010603 -1.887543 0.000000 0.000000 0.000000 20.562874 26.758268 13.816161 28.622809 40.167234 5.823888 -22.228466 23.056217 -3.198274 0.000000 0.000000 0.000000 
-0.021704 0.889984 -0.007706 -1.215986 -13.348137 11.292288 16.737053 4.761833 -40.796360 -10.022146 5.185056 35.195710 6.601292 14.487484 20.814395 0.000000 0.000000 0.000000 -3.416303 2.951844 -27.467750 10.155816 -1.022132 29.130198 -10.228956 -25.025946 -3.444515 0.000000 0.000000 0.000000 3.008606 -0.936478 38.023337 -3.054496 1.644857 3.772683 -7.715527 3.230448 -1.179401 8.950555 -2.158886 -26.562782 0.000000 0.000000 0.000000 -34.400004 -35.627955 23.568930 -11.982013 -38.577677 0.857454 25.706847 -13.900281 -2.366600 0.000000 0.000000 0.000000 21.739020 27.112791 14.484445 26.530813 40.833788 5.426763 -21.454678 23.570030 -3.133055 0.000000 0.000000 0.000000 
-0.023280 0.889418 -0.001984 -0.517853 -13.109492 10.972234 15.893839 4.408858 -41.369989 -9.893660 4.475537 31.189225 9.344565 17.989891 24.775420 0.000000 0.000000 0.000000 -3.903116 2.719847 -26.525196 9.849767 -0.970785 28.708815 -10.312452 -25.171214 -4.485544 0.000000 0.000000 0.000000 3.048228 -1.007726 37.475602 -2.524005 1.423019 4.811821 -7.646110 4.148264 -1.832821 8.969520 -1.916986 -27.233082 0.000000 0.000000 0.000000 -38.260683 -36.053947 24.730911 -11.805271 -36.750719 0.829528 26.105781 -16.359819 -2.885238 0.000000 0.000000 0.000000 22.081574 27.712643 15.354225 25.063865 40.495928 4.875692 -21.669468 24.005867 -3.209890 0.000000 0.000000 0.000000 
-0.023912 0.887912 0.007069 -0.603259 -13.490493 10.414625 15.744865 4.420332 -41.175836 -7.418659 2.689059 24.438925 7.618538 15.656953 24.647318 0.000000 0.000000 0.000000 -4.176173 2.616514 -25.895573 10.434886 -1.095804 29.707530 -10.260428 -24.955952 -4.708591 0.000000 0.000000 0.000000 3.353755 -1.069523 37.205949 -2.998860 1.685887 4.943814 -6.778765 4.891153 -1.616357 7.462978 -1.194536 -27.521937 0.000000 0.000000 0.000000 -38.209430 -35.280969 23.778957 -14.594287 -36.214155 1.500023 26.455287 -18.146759 -3.311325 0.000000 0.000000 0.000000 22.575324 28.078752 15.797307 24.398163 39.152709 4.390000 -21.542338 25.080846 -3.363783 0.000000 0.000000 0.000000 
-0.023066 0.885572 0.018889 -0.630284 -14.030727 9.760109 15.616475 4.360445 -40.329407 -2.947939 0.706452 16.446254 0.225556 7.580457 32.030057 0.000000 0.000000 0.000000 -4.810259 2.447236 -25.087087 11.265445 -1.287528 30.805212 -10.164648 -24.608904 -5.095911 0.000000 0.000000 0.000000 3.552704 -1.059023 37.186269 -2.929669 1.699884 5.565188 -7.526601 5.544880 -0.942318 8.045986 -1.208749 -28.979023 0.000000 0.000000 0.000000 -36.994917 -34.886759 22.608940 -16.119113 -36.029260 1.878525 26.023147 -18.793818 -3.401920 0.000000 0.000000 0.000000 22.170044 27.435227 15.488691 24.915500 40.714400 4.775209 -21.008706 23.643408 -3.025954 0.000000 0.000000 0.000000 
-0.020359 0.883332 0.033110 -0.608133 -14.211984 8.673089 15.126480 3.847855 -37.902438 1.151868 -0.379978 9.303273 -7.353991 -0.158417 34.604522 0.000000 0.000000 0.000000 -5.142512 2.169375 -23.069528 11.239314 -1.234280 31.082721 -10.153565 -24.313447 -6.055186 0.000000 0.000000 0.000000 3.764334 -1.079265 37.937655 -3.716201 2.059805 4.691260 -7.165487 6.082341 0.245278 9.593795 -1.784361 -29.831024 0.000000 0.000000 0.000000 -35.837627 -36.112001 23.083221 -17.498121 -35.096148 2.066705 25.815517 -17.414631 -3.137685 0.000000 0.000000 0.000000 22.400742 27.909807 15.900780 25.407862 40.350130 4.782201 -21.561237 22.285417 -2.928413 0.000000 0.000000 0.000000 
-0.015312 0.879624 0.049610 -0.599155 -14.335955 8.012265 14.762484 3.579865 -36.704525 3.722827 -0.788065 6.368933 -12.251373 -5.765520 34.091028 0.000000 0.000000 0.000000 -6.225830 1.909864 -21.784415 12.128757 -1.503392 31.886230 -10.160306 -24.213973 -6.592232 0.000000 0.000000 0.000000 3.172376 -0.809614 38.417966 -3.073788 1.725942 4.660570 -7.421860 6.853300 0.963974 11.186145 -2.107118 -31.802896 0.000000 0.000000 0.000000 -34.080932 -36.706122 22.577101 -19.342807 -34.239538 2.395610 25.623753 -17.075665 -3.080047 0.000000 0.000000 0.000000 21.622879 28.006216 15.987111 26.421742 41.358007 5.248581 -21.497230 21.272396 -2.750679 0.000000 0.000000 0.000000 
-0.007593 0.875729 0.068080 -1.322598 -15.183739 7.850747 15.340620 3.852473 -35.904756 5.148650 -1.001740 5.791991 -16.450190 -10.161343 34.718690 0.000000 0.000000 0.000000 -6.862621 1.812930 -21.092344 12.782652 -1.585875 33.871755 -9.309203 -21.714406 -7.662597 0.000000 0.000000 0.000000 3.205628 -0.711125 38.052629 -3.310182 1.821552 3.941662 -7.240423 7.440502 2.267760 11.553730 -2.274977 -32.108891 0.000000 0.000000 0.000000 -33.376752 -36.638606 22.285654 -20.355232 -32.596549 2.302964 24.605802 -16.931681 -2.917398 0.000000 0.000000 0.000000 21.792727 27.497481 15.717237 27.845593 41.403392 5.606988 -22.206060 20.775416 -2.776993 0.000000 0.000000 0.000000 
